<svg xmlns="http://www.w3.org/2000/svg" version="1.1" xmlns:xlink="http://www.w3.org/1999/xlink" xmlns:svgjs="http://svgjs.dev/svgjs" viewBox="0 0 2400 800"><defs><linearGradient x1="50%" y1="0%" x2="50%" y2="100%" id="sssurf-grad"><stop stop-color="hsl(208, 77%, 50%)" stop-opacity="1" offset="0%"></stop><stop stop-color="hsl(208, 74%, 93%)" stop-opacity="1" offset="100%"></stop></linearGradient></defs><g fill="url(#sssurf-grad)" transform="matrix(1,0,0,1,0,-132.92959594726562)"><path d="M 0 305.85915501074214 Q 360 644.3097020168141 480 332.89163678821103 Q 840 564.2367992280751 960 338.046609744703 Q 1320 635.425891391805 1440 331.68599108983096 Q 1800 543.9293142738328 1920 315.21579515761954 Q 2280 495.33676385051905 2400 313.5299924471959 L 2400 800 L 0 800 L 0 318.36374978471486 Z" transform="matrix(1,0,0,1,0,40)" opacity="0.05"></path><path d="M 0 305.85915501074214 Q 360 644.3097020168141 480 332.89163678821103 Q 840 564.2367992280751 960 338.046609744703 Q 1320 635.425891391805 1440 331.68599108983096 Q 1800 543.9293142738328 1920 315.21579515761954 Q 2280 495.33676385051905 2400 313.5299924471959 L 2400 800 L 0 800 L 0 318.36374978471486 Z" transform="matrix(1,0,0,1,0,80)" opacity="0.19"></path><path d="M 0 305.85915501074214 Q 360 644.3097020168141 480 332.89163678821103 Q 840 564.2367992280751 960 338.046609744703 Q 1320 635.425891391805 1440 331.68599108983096 Q 1800 543.9293142738328 1920 315.21579515761954 Q 2280 495.33676385051905 2400 313.5299924471959 L 2400 800 L 0 800 L 0 318.36374978471486 Z" transform="matrix(1,0,0,1,0,120)" opacity="0.32"></path><path d="M 0 305.85915501074214 Q 360 644.3097020168141 480 332.89163678821103 Q 840 564.2367992280751 960 338.046609744703 Q 1320 635.425891391805 1440 331.68599108983096 Q 1800 543.9293142738328 1920 315.21579515761954 Q 2280 495.33676385051905 2400 313.5299924471959 L 2400 800 L 0 800 L 0 318.36374978471486 Z" transform="matrix(1,0,0,1,0,160)" opacity="0.46"></path><path d="M 0 305.85915501074214 Q 360 644.3097020168141 480 332.89163678821103 Q 840 564.2367992280751 960 338.046609744703 Q 1320 635.425891391805 1440 331.68599108983096 Q 1800 543.9293142738328 1920 315.21579515761954 Q 2280 495.33676385051905 2400 313.5299924471959 L 2400 800 L 0 800 L 0 318.36374978471486 Z" transform="matrix(1,0,0,1,0,200)" opacity="0.59"></path><path d="M 0 305.85915501074214 Q 360 644.3097020168141 480 332.89163678821103 Q 840 564.2367992280751 960 338.046609744703 Q 1320 635.425891391805 1440 331.68599108983096 Q 1800 543.9293142738328 1920 315.21579515761954 Q 2280 495.33676385051905 2400 313.5299924471959 L 2400 800 L 0 800 L 0 318.36374978471486 Z" transform="matrix(1,0,0,1,0,240)" opacity="0.73"></path><path d="M 0 305.85915501074214 Q 360 644.3097020168141 480 332.89163678821103 Q 840 564.2367992280751 960 338.046609744703 Q 1320 635.425891391805 1440 331.68599108983096 Q 1800 543.9293142738328 1920 315.21579515761954 Q 2280 495.33676385051905 2400 313.5299924471959 L 2400 800 L 0 800 L 0 318.36374978471486 Z" transform="matrix(1,0,0,1,0,280)" opacity="0.86"></path><path d="M 0 305.85915501074214 Q 360 644.3097020168141 480 332.89163678821103 Q 840 564.2367992280751 960 338.046609744703 Q 1320 635.425891391805 1440 331.68599108983096 Q 1800 543.9293142738328 1920 315.21579515761954 Q 2280 495.33676385051905 2400 313.5299924471959 L 2400 800 L 0 800 L 0 318.36374978471486 Z" transform="matrix(1,0,0,1,0,320)" opacity="1.00"></path></g></svg>